<svg xmlns="http://www.w3.org/2000/svg" width="1200" height="630" viewBox="0 0 1200 630" role="img" aria-label="جلد دوره برنامه‌سازی پیشرفته">
  <rect width="1200" height="630" fill="#1C1917"/>
  <!-- terminal window -->
  <g>
    <rect x="90" y="90" width="420" height="300" rx="14" fill="none" stroke="#FAF8F1" stroke-width="2.5" opacity="0.35"/>
    <line x1="90" y1="150" x2="510" y2="150" stroke="#FAF8F1" stroke-width="2" opacity="0.25"/>
    <circle cx="130" cy="120" r="9" fill="#E8A33D" opacity="0.9"/>
    <circle cx="162" cy="120" r="9" fill="#FAF8F1" opacity="0.35"/>
    <circle cx="194" cy="120" r="9" fill="#FAF8F1" opacity="0.35"/>
    <g opacity="0.8">
      <rect x="120" y="180" width="180" height="14" rx="7" fill="#4ADE80" opacity="0.7"/>
      <rect x="120" y="212" width="260" height="14" rx="7" fill="#FAF8F1" opacity="0.35"/>
      <rect x="120" y="244" width="220" height="14" rx="7" fill="#FAF8F1" opacity="0.35"/>
      <rect x="120" y="276" width="290" height="14" rx="7" fill="#E8A33D" opacity="0.75"/>
      <rect x="120" y="308" width="150" height="14" rx="7" fill="#FAF8F1" opacity="0.35"/>
    </g>
    <rect x="384" y="336" width="26" height="34" fill="#E8A33D" opacity="0.9"/>
  </g>
  <!-- big brackets -->
  <g font-family="Tahoma, sans-serif" font-size="200" font-weight="bold" fill="none" stroke="#4ADE80" stroke-width="6" opacity="0.5">
    <text x="560" y="330" fill="none" stroke="#4ADE80" direction="ltr">{</text>
    <text x="1010" y="330" fill="none" stroke="#4ADE80" direction="ltr">}</text>
  </g>
  <text x="790" y="300" font-family="Tahoma, sans-serif" font-size="64" font-weight="bold" fill="#4ADE80" opacity="0.9" text-anchor="middle" direction="ltr">class</text>
  <!-- frame -->
  <rect x="48" y="48" width="1104" height="534" fill="none" stroke="#FAF8F1" stroke-width="3"/>
  <line x1="48" y1="470" x2="1152" y2="470" stroke="#FAF8F1" stroke-width="2" opacity="0.6"/>
  <text x="1050" y="140" font-family="Tahoma, sans-serif" font-size="30" font-weight="bold" fill="#E8A33D" text-anchor="end">برنامه‌نویسی • شی‌گرایی • ساختمان داده</text>
  <text x="1050" y="250" font-family="Tahoma, sans-serif" font-size="72" font-weight="900" fill="#FAF8F1" text-anchor="end">برنامه‌سازی پیشرفته</text>
  <text x="1050" y="330" font-family="Tahoma, sans-serif" font-size="40" font-weight="bold" fill="#FAF8F1" opacity="0.9" text-anchor="end" direction="ltr">Advanced Programming</text>
  <text x="1050" y="415" font-family="Tahoma, sans-serif" font-size="34" fill="#FAF8F1" opacity="0.85" text-anchor="end">وب‌سایت آموزشی تعاملی</text>
  <text x="600" y="560" font-family="Tahoma, sans-serif" font-size="30" fill="#FAF8F1" opacity="0.85" text-anchor="middle">study.danialrashidi.ir</text>
</svg>
